<?xml version="1.0" encoding="UTF-8" standalone="no"?>
<svg
   xmlns:dc="http://purl.org/dc/elements/1.1/"
   xmlns:cc="http://creativecommons.org/ns#"
   xmlns:rdf="http://www.w3.org/1999/02/22-rdf-syntax-ns#"
   xmlns:svg="http://www.w3.org/2000/svg"
   xmlns="http://www.w3.org/2000/svg"
   xmlns:xlink="http://www.w3.org/1999/xlink"
   xmlns:sodipodi="http://sodipodi.sourceforge.net/DTD/sodipodi-0.dtd"
   xmlns:inkscape="http://www.inkscape.org/namespaces/inkscape"
   sodipodi:docname="logos.svg"
   inkscape:version="1.0 (4035a4fb49, 2020-05-01)"
   id="svg8"
   version="1.1"
   viewBox="0 0 210 297"
   height="297mm"
   width="210mm">
  <defs
     id="defs2">
    <linearGradient
       id="linearGradient1008"
       inkscape:collect="always">
      <stop
         id="stop1004"
         offset="0"
         style="stop-color:#cc51ba;stop-opacity:1" />
      <stop
         id="stop1006"
         offset="1"
         style="stop-color:#d9d9d9;stop-opacity:1" />
    </linearGradient>
    <linearGradient
       id="linearGradient952"
       inkscape:collect="always">
      <stop
         id="stop948"
         offset="0"
         style="stop-color:#008826;stop-opacity:1;" />
      <stop
         id="stop950"
         offset="1"
         style="stop-color:#dbe7df;stop-opacity:1" />
    </linearGradient>
    <linearGradient
       gradientTransform="matrix(-1.4446432,0,0,1.4446432,160.7756,64.9147)"
       gradientUnits="userSpaceOnUse"
       y2="32.935314"
       x2="62.734066"
       y1="20.568985"
       x1="78.394447"
       id="linearGradient954"
       xlink:href="#linearGradient952"
       inkscape:collect="always" />
    <linearGradient
       y2="32.935314"
       x2="62.734066"
       y1="20.568985"
       x1="78.394447"
       gradientTransform="matrix(-1.3813424,-0.42295043,-0.42295043,1.3813424,164.27609,75.102441)"
       gradientUnits="userSpaceOnUse"
       id="linearGradient974"
       xlink:href="#linearGradient952"
       inkscape:collect="always" />
    <linearGradient
       gradientUnits="userSpaceOnUse"
       y2="145.14403"
       x2="-17.648355"
       y1="108.52951"
       x1="-26.153522"
       id="linearGradient1010"
       xlink:href="#linearGradient1008"
       inkscape:collect="always" />
  </defs>
  <sodipodi:namedview
     inkscape:snap-global="true"
     inkscape:window-maximized="1"
     inkscape:window-y="24"
     inkscape:window-x="0"
     inkscape:window-height="1004"
     inkscape:window-width="1920"
     showgrid="false"
     inkscape:document-rotation="0"
     inkscape:current-layer="layer1"
     inkscape:document-units="mm"
     inkscape:cy="204.1197"
     inkscape:cx="-395.47066"
     inkscape:zoom="0.35355339"
     inkscape:pageshadow="2"
     inkscape:pageopacity="0.0"
     borderopacity="1.0"
     bordercolor="#666666"
     pagecolor="#ffffff"
     id="base">
    <inkscape:grid
       id="grid872"
       type="xygrid" />
  </sodipodi:namedview>
  <metadata
     id="metadata5">
    <rdf:RDF>
      <cc:Work
         rdf:about="">
        <dc:format>image/svg+xml</dc:format>
        <dc:type
           rdf:resource="http://purl.org/dc/dcmitype/StillImage" />
        <dc:title></dc:title>
      </cc:Work>
    </rdf:RDF>
  </metadata>
  <g
     id="layer1"
     inkscape:groupmode="layer"
     inkscape:label="Calque 1">
    <path
       transform="scale(0.26458333)"
       inkscape:export-ydpi="3.7692206"
       inkscape:export-xdpi="3.7692206"
       d="M 399.12109,165.66406 A 291.59007,291.59007 0 0 0 115.39648,389.99219 h 42.84961 a 250.09182,250.09182 0 0 1 240.32813,-182.82813 250.09182,250.09182 0 0 1 0.54687,0 250.09182,250.09182 0 0 1 240.87696,182.82813 h 42.84961 A 291.59007,291.59007 0 0 0 399.12109,165.66406 Z"
       style="opacity:1;fill:#30c670;fill-opacity:1;fill-rule:evenodd;stroke:none;stroke-width:3.77953;stroke-dasharray:3.77953, 3.77953;paint-order:markers stroke fill"
       id="path914" />
    <path
       inkscape:export-ydpi="3.7692206"
       inkscape:export-xdpi="3.7692206"
       style="opacity:1;fill:url(#linearGradient974);fill-opacity:1;fill-rule:evenodd;stroke:none;stroke-width:0.489;stroke-linecap:butt;stroke-linejoin:miter;stroke-miterlimit:4;stroke-dasharray:none;stroke-opacity:0.35477"
       d="M 100.19342,137.63122 69.075673,92.500032 52.753255,65.279564 38.572635,43.139842 l -7.59153,7.679081 13.05176,14.431625 15.419682,20.602549 -28.962922,-34.287345 -4.15258,9.860643 42.573917,46.285505 21.869465,35.56068"
       id="path972"
       sodipodi:nodetypes="ccccccccccc" />
    <g
       inkscape:export-ydpi="3.7692206"
       inkscape:export-xdpi="3.7692206"
       inkscape:transform-center-y="-2.910357"
       inkscape:transform-center-x="-5.1791268"
       transform="matrix(-0.61088201,0.30134428,0.29714195,0.60297636,50.722504,32.385648)"
       id="g1014">
      <path
         sodipodi:nodetypes="ccsccccccc"
         style="fill:#10a300;fill-opacity:0.616316;fill-rule:evenodd;stroke:none;stroke-width:0.189739px;stroke-linecap:butt;stroke-linejoin:miter;stroke-opacity:1"
         d="M -25.439759,112.99196 -44.108053,85.219108 c 0,0 3.690985,-5.312291 4.956293,-4.284254 1.265309,1.028034 13.175414,29.321006 13.175414,29.321006 l -11.677678,-38.818788 5.856116,-0.386162 7.446007,38.84901 -2.090192,-35.472982 10.294604,3.072012 -6.519589,34.83663"
         id="path1002" />
      <path
         style="fill:url(#linearGradient1010);fill-opacity:1;fill-rule:evenodd;stroke:none;stroke-width:0.264583px;stroke-linecap:butt;stroke-linejoin:miter;stroke-opacity:1"
         d="m -12.47822,157.57787 c 0,0 -44.575434,-6.52545 -36.873442,-24.02673 7.701991,-17.50129 25.657718,-23.15239 25.657718,-23.15239 0,0 38.959508,-0.41361 35.557722,12.39149 -3.4017852,12.8051 -24.341998,34.78763 -24.341998,34.78763 z"
         id="path998"
         sodipodi:nodetypes="cscsc" />
    </g>
    <path
       inkscape:export-ydpi="3.7692206"
       inkscape:export-xdpi="3.7692206"
       sodipodi:nodetypes="ccccccccccc"
       id="path946"
       d="M 117.80752,143.4652 74.840161,109.42195 51.263574,88.172947 31.222429,71.155018 l -5.01067,9.565186 16.705035,9.978081 20.775868,15.185355 -37.732198,-24.30544 -1.08371,10.644331 54.25951,31.792949 31.322356,27.59974"
       style="opacity:1;fill:url(#linearGradient954);fill-opacity:1;fill-rule:evenodd;stroke:none;stroke-width:0.489;stroke-linecap:butt;stroke-linejoin:miter;stroke-miterlimit:4;stroke-dasharray:none;stroke-opacity:0.35477" />
    <g
       inkscape:export-ydpi="3.7692206"
       inkscape:export-xdpi="3.7692206"
       transform="translate(16.715545,3.2336)"
       style="stroke:none;stroke-width:1.4;stroke-miterlimit:4;stroke-dasharray:none;stroke-opacity:0.35477"
       id="g942">
      <path
         style="fill:#008826;fill-opacity:1;fill-rule:evenodd;stroke:none;stroke-width:1.4;stroke-linecap:butt;stroke-linejoin:miter;stroke-miterlimit:4;stroke-dasharray:none;stroke-opacity:0.35477"
         d="m 142.89905,81.601307 -3.42283,-17.463083 8.56578,15.991393 17.2145,-8.469072 -8.0261,14.345212 10.58562,14.747863 -19.59186,-11.855671"
         id="path885" />
      <path
         style="fill:#f69b00;fill-opacity:1;fill-rule:evenodd;stroke:none;stroke-width:1.4;stroke-linecap:butt;stroke-linejoin:miter;stroke-miterlimit:4;stroke-dasharray:none;stroke-opacity:0.35477"
         d="M 83.328015,124.96332 139.71116,76.575597 156.92529,98.314823"
         id="path883"
         sodipodi:nodetypes="ccc" />
    </g>
    <path
       id="path864"
       style="opacity:1;fill:#30c670;fill-opacity:1;fill-rule:evenodd;stroke:none;stroke-width:1;stroke-dasharray:1, 1;paint-order:markers stroke fill"
       d="m 695.73755,43.797844 a 77.149872,77.149872 0 0 0 -77.14981,77.149806 77.149872,77.149872 0 0 0 77.14981,77.15033 77.149872,77.149872 0 0 0 77.15033,-77.15033 77.149872,77.149872 0 0 0 -77.15033,-77.149806 z m -0.14469,10.980208 a 66.170127,66.170127 0 0 1 0.14469,0 66.170127,66.170127 0 0 1 63.73255,48.375338 H 632.00553 a 66.170127,66.170127 0 0 1 63.58733,-48.375338 z" />
    <path
       transform="scale(0.26458333)"
       inkscape:export-ydpi="3.7692206"
       inkscape:export-xdpi="3.7692206"
       d="m 115.39648,389.99219 a 291.59007,291.59007 0 0 0 -7.86523,67.26172 291.59007,291.59007 0 0 0 291.58984,291.59179 291.59007,291.59007 0 0 0 291.5918,-291.59179 291.59007,291.59007 0 0 0 -7.86523,-67.26172 H 639.99805 A 250.09182,250.09182 0 0 1 640,390 H 158.24414 a 250.09182,250.09182 0 0 1 0.002,-0.008 z"
       style="opacity:1;fill:#30c670;fill-opacity:1;fill-rule:evenodd;stroke:none;stroke-width:3.77953;stroke-dasharray:3.77953, 3.77953;paint-order:markers stroke fill"
       id="path887" />
    <g
       inkscape:export-ydpi="3.7692206"
       inkscape:export-xdpi="3.7692206"
       transform="matrix(1.1786228,0,0,1.1786228,-335.96559,-27.040687)"
       style="opacity:1;stroke:#ffffff;stroke-width:6.7;stroke-miterlimit:4;stroke-dasharray:none;stroke-opacity:1"
       id="g1047">
      <path
         transform="matrix(0.26458333,0,0,0.26458333,110.31676,1.0945555)"
         d="m 398.64844,439.48633 -145.59375,84.05859 41.50195,0.0781 V 650.24219 H 503.6875 V 524.01367 l 41.50195,0.0781 z"
         style="opacity:1;fill:#ffffff;fill-opacity:1;fill-rule:evenodd;stroke:none;stroke-width:25.3228;stroke-linecap:butt;stroke-linejoin:miter;stroke-miterlimit:4;stroke-dasharray:none;stroke-opacity:1"
         id="path875" />
    </g>
    <circle
       r="0.022655891"
       cy="148.16844"
       cx="-50.065861"
       style="fill:#dbe7df;stroke:#000000;stroke-width:0.264583"
       id="path994" />
    <g
       inkscape:export-ydpi="3.7692206"
       inkscape:export-xdpi="3.7692206"
       transform="matrix(1.1941749,0,0,1.1941749,-20.505073,-28.580724)"
       id="g1129">
      <g
         id="g1120">
        <circle
           r="11.089437"
           cy="130.8457"
           cx="105.60104"
           id="path1016"
           style="opacity:1;fill:#ffffff;fill-opacity:1;fill-rule:evenodd;stroke:none;stroke-width:1.54646;stroke-miterlimit:4;stroke-dasharray:none;stroke-opacity:0.35477;paint-order:markers stroke fill" />
      </g>
      <g
         id="g1123">
        <path
           d="m 118.65166,138.21337 a 14.9868,14.9868 0 0 1 -13.05061,7.61903 14.9868,14.9868 0 0 1 -13.050617,-7.61859 21.594892,22.163179 0 0 0 -8.544279,17.65773 21.594892,22.163179 0 0 0 0.0018,0.25795 c -1.14e-4,0.006 -0.0018,0.0111 -0.0018,0.0169 V 174.625 h 43.189786 v -18.47864 c 0,-0.005 -0.002,-0.0105 -0.002,-0.016 a 21.594892,22.163179 0 0 0 0.002,-0.25884 21.594892,22.163179 0 0 0 -8.54428,-17.65817 z"
           style="opacity:1;fill:#ffffff;fill-opacity:1;fill-rule:evenodd;stroke:none;stroke-width:1.54646;stroke-miterlimit:4;stroke-dasharray:none;stroke-opacity:0.35477;paint-order:markers stroke fill"
           id="path1025" />
      </g>
    </g>
  </g>
</svg>
